<?xml version="1.0" encoding="utf-8"?>
<!-- Generator: Adobe Illustrator 16.0.4, SVG Export Plug-In . SVG Version: 6.00 Build 0)  -->
<!DOCTYPE svg PUBLIC "-//W3C//DTD SVG 1.1//EN" "http://www.w3.org/Graphics/SVG/1.1/DTD/svg11.dtd">
<svg version="1.1" id="Layer_1" xmlns="http://www.w3.org/2000/svg" xmlns:xlink="http://www.w3.org/1999/xlink" x="0px" y="0px"
	 width="397.269px" height="397.269px" viewBox="0 0 397.269 397.269" enable-background="new 0 0 397.269 397.269"
	 xml:space="preserve">
<circle fill="#3B5C9E" cx="198.635" cy="198.634" r="198.635"/>
<g>
	<path stroke="#000000" stroke-width="0.036" stroke-miterlimit="10" d="M312.36,299.01H89.956l0.725-19.502l2.902-24.045
		l3.42-11.189c0.19-1.209,1.053-2.461,2.521-3.75c1.451-1.389,1.606-2.262,6.321-4.146c4.716-1.883,11.779-4.205,21.659-7.041
		c-4.975-0.656-9.292-2.084-13.352-4.365c-4.075-2.322-7.651-4.742-10.656-9.324c-3.022-4.645-6.01-13.432-7.029-18.253
		c-0.967-4.861-0.57-8.452,1.261-10.773c0.552,4.048,1.589,7.062,3.247,9.126c1.641,2.043,3.782,3.056,6.494,3.115
		c-3.212-2.936-5.129-6.369-5.959-10.375c-0.812-4.067-0.449-8.551,1.088-13.689c0.864,3.254,2.003,5.853,3.61,8.095
		c1.589,2.162,3.454,3.849,5.786,4.979c-2.056-2.996-3.264-5.833-3.438-8.511c-0.189-2.738,0.467-5.238,2.159-7.658
		c1.45,4.722,3.178,7.916,5.251,9.741c2.021,1.766,5.164,3.233,7.029,1.031c1.882-2.281,3.627-7.816,3.972-14.304
		c0.19-6.508-2.746-17.757-2.349-24.422c0.449-6.706,1.986-11.091,4.87-15.534c2.815-4.544,7.185-9.781,11.918-11.21
		c4.697-1.389,9.965-0.416,16.062,2.917c-3.092-4.385-4.715-8.71-4.87-13.273c-0.19-4.622,0.432-9.642,3.8-13.907
		c3.385-4.265,8.688-8.134,16.234-11.606c-1.14,3.69-1.416,6.567-0.897,8.71c0.483,2.103,1.83,3.392,3.972,3.948
		c2.384-3.869,4.871-6.706,7.393-8.511c2.556-1.885,5.061-2.638,7.772-2.48c-1.365,1.925-2.004,3.829-1.986,5.793
		c0.018,1.964,0.761,3.829,2.159,5.812c3.333-4.94,6.355-8.432,9.396-10.792c3.022-2.301,5.872-2.797,8.48-3.095
		c2.557-0.397,4.698-0.119,6.684,0.833c-2.383,2.56-3.419,4.742-3.247,6.626c0.19,1.865,0.898,4.305,4.318,4.563
		c3.42,0.159,9.982-2.579,15.89-3.313c5.838-0.774,13.402-2.043,18.964-1.051c5.476,0.972,10.104,2.639,13.886,7.062
		c3.731,4.424,7.048,12.539,8.48,19.284c1.382,6.686,0.069,14.8,0,20.514c-0.138,5.635-1.762,8.849-0.535,13.074
		c1.243,4.106,4.646,7.46,7.945,11.824c3.264,4.345,8.515,8.511,11.555,14.344c2.97,5.833,6.303,13.292,6.131,20.315
		c-0.312,6.984-4.369,16.486-7.582,21.167c-3.265,4.525-8.135,5.775-11.555,6.211c-3.42,0.377-6.322-0.793-8.844-3.73
		c-1.761,2.699-3.419,4.703-5.042,6.23c-1.658,1.469-3.161,2.359-4.698,2.678c6.493,2.023,12.885,4.504,19.499,7.359
		c6.65,2.857,15.13,5.934,19.846,9.762c4.56,3.789,5.596,3.631,7.582,12.836C310.167,266.295,311.532,280.084,312.36,299.01z"/>
	<path fill="#FFFFFF" stroke="#000000" stroke-width="0.036" stroke-miterlimit="10" d="M144.481,228.303
		c0.605,4.127,0.726,8.789,0.363,14.305c-0.345,5.477-0.259,10.732-2.538,18.451c-2.384,7.717-6.166,16.664-11.538,27.379
		c9.707-2.541,17.409-4.127,23.645-4.98c6.148-0.854,8.723-0.854,13.179,0c4.438,0.854,8.722,2.439,13.178,4.98
		c0.726-3.275,0.794-6.311,0.346-9.346c-0.519-3.035-1.555-5.912-3.247-8.709c-1.641,1.428-3.627,1.943-5.959,1.467
		c-2.384-0.535-5.112-1.348-8.117-4.363c-3.058-3.096-6.702-7.123-9.932-13.689C150.596,247.189,147.539,238.818,144.481,228.303z"
		/>
	<path fill="#FFFFFF" stroke="#000000" stroke-width="0.036" stroke-miterlimit="10" d="M204.224,268.102
		c-1.055,2.201-1.676,5.236-1.797,9.344c-0.155,4.066,0.121,8.986,0.898,14.918c3.367-4.105,9.378-6.982,18.238-8.709
		c8.895-1.727,20.243-2.301,34.646-1.646c-3.04-2.34-5.458-5.635-7.392-9.959c-1.918-4.346-3.195-8.85-4.163-15.971
		c-1.001-7.221-1.728-15.93-1.986-26.742c-0.794,4.363-1.934,7.717-3.419,10.375c-1.537,2.58-2.159,3.492-5.596,5.178
		c-3.472,1.568-11.555,2.361-14.991,4.762c-3.456,2.4-4.008,7.203-5.597,9.742c-1.624,2.461-2.694,3.73-4.145,5.197
		C207.454,266.078,205.865,267.148,204.224,268.102z"/>
	<path fill="#E3B79C" stroke="#000000" stroke-width="0.036" stroke-miterlimit="10" d="M200.804,269.35
		c-1.02,0.637-2.297,1.053-3.973,1.25c-1.658,0.18-4.197,0.895-5.958-0.217c-1.813-1.17-3.438-3.354-4.871-6.627
		c-0.69,1.191-1.451,2.322-2.349,3.314c-0.933,1.012-1.934,1.885-3.074,2.697c1.226,2.6,2.107,5.516,2.711,8.908
		c0.57,3.393,0.812,7.023,0.726,11.209c1.036,0.715,2.418,1.588,4.146,2.697c1.727,1.092,3.748,2.4,6.131,3.928
		c0.466-0.197,1.227-0.475,2.349-0.832c1.123-0.396,2.521-0.854,4.335-1.449c-0.846-4.344-1.243-8.432-1.261-12.637
		C199.681,277.404,200.044,273.398,200.804,269.35z"/>
	<path stroke="#000000" stroke-width="0.036" stroke-miterlimit="10" d="M191.045,275.164c-0.776,0.436-2.142,3.193-2.694,4.76
		c-0.535,1.43-1.434,2.619-0.553,3.949c0.847,1.289,5.112,4.127,5.596,3.928c0.346-0.258-2.918-3.709-3.073-5.377
		c-0.139-1.783,2.176-3.531,2.349-4.779C192.738,276.354,191.754,274.785,191.045,275.164z"/>
	<path fill="#E3B79C" stroke="#000000" stroke-width="0.036" stroke-miterlimit="10" d="M186.002,258.994
		c-0.795,2.797-2.159,5.02-4.163,6.824c-2.072,1.746-5.077,3.791-7.755,3.75c-2.711-0.098-4.974-1.428-8.117-4.363
		c-3.178-3.018-7.289-6.588-10.656-13.473c-3.402-7.021-6.546-16.148-9.568-27.992c2.884-2.561,4.784-5.893,5.959-10.158
		c1.054-4.305,0.673-9.68,0.725-15.355c0.018-5.752-0.414-12.299-0.362-18.648c-0.018-6.408-1.33-14.205,0.535-19.185
		c1.865-4.96,5.907-7.5,10.657-10.376c4.767-2.956,12.971-4.742,17.686-7.043c4.594-2.302,7.496-3.948,10.104-6.845
		c2.608-3.016,4.353-6.626,5.424-10.991c1.934,4.643,4.542,8.075,7.755,10.376c3.212,2.262,7.616,3.571,11.555,3.313
		c3.902-0.277,7.772-1.964,11.744-4.979c-0.017,2.956,0.847,5.733,2.522,8.709c1.691,2.896,5.199,5.06,7.581,8.71
		c2.331,3.61,4.819,8.709,6.322,12.855c1.434,4.087,2.521,8.412,2.331,11.605c-0.311,3.155-1.572,5.654-3.782,7.262
		c-2.263,1.548-5.285,2.242-9.396,2.083c-0.517,2.619-0.275,5.039,0.726,7.262c0.985,2.202,2.729,4.206,5.233,6.01
		c-1.813,0.08-3.437-0.197-4.87-1.052c-1.451-0.853-2.712-2.162-3.782-3.928c-0.276,3.71,0.242,6.945,1.623,9.941
		c1.347,2.955,3.488,5.436,6.494,7.678c-1.122,0.357-2.143,0.455-3.248,0.217c-1.123-0.236-2.141-0.793-3.247-1.666
		c-0.12,3.334,0.587,6.389,1.986,9.326c1.45,2.896,3.523,5.594,6.494,8.094c-0.536,4.105-1.537,7.4-3.075,9.959
		c-1.588,2.48-3.454,3.848-6.131,5.178c-2.746,1.27-7.012,1.172-9.931,2.697c-2.919,1.469-5.01,3.613-7.393,6.428
		c-2.384,2.779-4.232,7.58-6.874,10.357c-2.746,2.758-6.46,5.117-9.206,6.012c-2.78,0.732-5.233,0.217-7.22-1.23
		C188.679,264.867,187.142,262.486,186.002,258.994z"/>
	<path stroke="#000000" stroke-width="0.036" stroke-miterlimit="10" d="M168.489,222.59c-0.241,2.182,0.156,11.17,0.726,12.656
		c0.518,1.33,0.76-3.49,2.521-4.363s3.921-0.635,7.945-0.814c3.99-0.238,11.175-0.377,15.89-0.416
		c4.681-0.061,8.826-0.656,11.9,0.199c2.987,0.871,5.51,5.018,5.959,4.779c0.346-0.357-1.813-5.355-3.609-6.646
		c-1.849-1.27-2.989-0.971-7.221-1.031c-4.318-0.119-13.368,0.297-18.221,0.418c-4.854,0.018-8.359,0.812-10.656,0
		c-2.366-0.932-2.384-4.127-3.247-4.98C169.525,221.557,168.731,220.428,168.489,222.59z"/>
	<path stroke="#000000" stroke-width="0.036" stroke-miterlimit="10" d="M204.051,245.404c0.121-1.508,0.104-5.377-1.451-6.627
		c-1.675-1.25-4.646-0.912-8.117-1.051c-3.506-0.258-10.362-1.012-12.453-0.197c-2.055,0.793-2.021,3.986,0.173,4.979
		c2.176,0.912,9.655,0.635,12.643,0.615c2.902-0.08,3.506-1.607,4.681-0.834c1.122,0.814,1.381,4.783,2.175,5.396
		C202.427,248.162,203.878,246.893,204.051,245.404z"/>
	<path stroke="#000000" stroke-width="0.036" stroke-miterlimit="10" d="M185.639,201.242c-0.656,2.162-2.297,5.873-3.247,8.908
		c-1.019,2.975-2.953,7.279-2.538,8.709c0.414,1.328,3.057-0.1,5.061-0.615c1.951-0.635,4.576-2.758,6.684-2.697
		c2.038,0.08,3.506,2.738,5.596,3.314c2.038,0.555,5.907,1.268,6.667,0c0.708-1.35-1.451-4.584-2.35-7.877
		c-1.02-3.354-3.437-11.348-3.247-11.824c0.242-0.418,3.074,5.455,4.698,9.125c1.605,3.592,4.87,10.059,4.87,12.439
		c-0.121,2.303-2.729,1.211-5.233,1.469c-2.556,0.197-7.669,0.377-9.741,0c-2.072-0.436-1.14-2.162-2.538-2.283
		c-1.451-0.176-3.68,1.252-5.941,1.449c-2.332,0.119-6.702,1.053-7.582-0.416c-0.882-1.568,0.726-4.584,2.349-8.512
		c1.589-4.006,5.89-13.014,7.029-14.919C187.211,195.648,186.279,199.059,185.639,201.242z"/>
	<path stroke="#000000" stroke-width="0.036" stroke-miterlimit="10" d="M191.961,208.701c0.275-1.328,0.155-11.13,0.708-15.553
		c0.518-4.504,1.917-10.436,2.539-10.991c0.518-0.556,0.639,7.995,0.897,7.678c0.225-0.477,0.863-7.52,0.726-9.96
		c-0.156-2.479-0.674-6.189-1.624-4.543c-1.036,1.667-3.402,10.197-4.162,14.503c-0.708,4.226-0.363,7.817-0.173,10.992
		C191.011,204,191.616,209.912,191.961,208.701z"/>
	<path stroke="#000000" stroke-width="0.036" stroke-miterlimit="10" d="M219.215,193.782c1.277-3.828,0.484-8.887-0.19-14.104
		c-0.656-5.258-1.917-13.729-3.782-17.003c-1.986-3.273-5.354-4.126-7.772-2.479c-2.47,1.627-5.406,7.639-6.667,12.221
		c-1.209,4.523-1.451,9.682-0.726,14.939c0.675,5.297,2.815,13.788,4.697,16.368c1.866,2.381,3.835,0.02,6.305-1.646
		C213.499,200.41,217.833,197.493,219.215,193.782z"/>
	<path fill="#FFFFFF" stroke="#000000" stroke-width="0.036" stroke-miterlimit="10" d="M203.689,194.398
		c0.708,1.765,1.709,2.499,3.073,2.282c1.33-0.279,4.076-0.734,5.043-3.731c0.898-3.135,0.95-10.296,0.554-14.304
		c-0.433-4.027-1.59-8.114-3.075-9.345c-1.555-1.229-3.472-0.535-5.958,2.083c0.949-3.273,2.055-5.693,3.246-7.261
		c1.157-1.627,2.591-2.639,3.974-2.281c1.381,0.277,3.161,1.27,4.334,4.364c1.055,3.174,1.745,10.059,2.35,14.305
		c0.588,4.066,1.762,7.419,1.261,10.355c-0.586,2.916-2.469,5.297-4.508,7.063c-2.091,1.786-6.079,3.81-7.772,3.313
		C204.448,200.646,203.671,198.365,203.689,194.398z"/>
	<path fill="#FFFFFF" stroke="#000000" stroke-width="0.036" stroke-miterlimit="10" d="M204.224,180.927
		c-0.536,1.349-0.604,6.03,0,7.459c0.535,1.389,2.901,2.123,3.438,0.833c0.465-1.468,0.188-7.479-0.363-8.927
		C206.676,178.923,204.743,179.518,204.224,180.927z"/>
	<path stroke="#000000" stroke-width="0.036" stroke-miterlimit="10" d="M183.153,195.965c1.641-3.611,1.364-8.77,1.243-14.026
		c-0.189-5.337-0.482-13.868-2.072-17.399c-1.641-3.531-4.904-4.801-7.461-3.491c-2.626,1.329-6.132,6.844-7.858,11.269
		c-1.659,4.364-2.419,9.403-2.211,14.74c0.121,5.317,1.416,14.105,3.022,16.884c1.623,2.658,3.816,0.494,6.442-0.814
		C176.796,201.797,181.425,199.438,183.153,195.965z"/>
	<path fill="#FFFFFF" stroke="#000000" stroke-width="0.036" stroke-miterlimit="10" d="M167.677,194.537
		c0.519,1.864,1.434,2.678,2.815,2.659c1.399-0.04,4.111-0.26,5.406-3.036c1.209-2.997,1.952-10.079,1.969-14.126
		c-0.051-4.067-0.76-8.214-2.124-9.682c-1.434-1.409-3.386-1.012-6.114,1.27c1.278-3.174,2.573-5.337,3.955-6.785
		c1.382-1.487,2.746-2.241,4.162-1.726c1.33,0.516,3.04,1.606,3.869,4.88c0.76,3.214,0.725,10.297,0.898,14.522
		c0.189,4.187,1.019,7.599,0.224,10.476c-0.88,2.837-2.987,4.92-5.199,6.408c-2.244,1.447-6.407,3.016-8.03,2.262
		C167.884,200.826,167.211,198.504,167.677,194.537z"/>
	<path fill="#FFFFFF" stroke="#000000" stroke-width="0.036" stroke-miterlimit="10" d="M169.56,181.224
		c-0.674,1.29-1.209,5.873-0.743,7.4c0.397,1.429,2.66,2.52,3.316,1.29c0.64-1.369,0.95-7.4,0.536-8.908
		C172.185,179.558,170.216,179.916,169.56,181.224z"/>
	<path stroke="#000000" stroke-width="0.036" stroke-miterlimit="10" d="M160.181,161.424c2.28-0.872,6.943-4.424,10.657-5.594
		c3.644-1.29,7.996-2.56,11.191-1.667c3.178,0.913,5.855,6.15,7.755,7.062c1.883,0.813,4.145,0.198,3.247-2.083
		c-1.054-2.341-6.563-9.999-9.206-11.804c-2.607-1.825-2.107-1.527-6.494,0.813c-4.508,2.281-17.115,10.574-20.034,12.855
		C154.413,163.151,157.884,162.318,160.181,161.424z"/>
	<path stroke="#000000" stroke-width="0.036" stroke-miterlimit="10" d="M233.101,156.862c-2.037-2.262-12.331-9.345-16.425-10.772
		c-4.128-1.468-4.836,0.139-7.928,2.063c-3.108,1.864-10.933,8.809-10.483,9.126c0.448,0.179,9.016-7.5,13.178-7.658
		c4.128-0.119,8.67,5.139,11.555,6.825c2.815,1.587,3.714,2.816,5.424,2.916C230.079,159.401,235.036,159.024,233.101,156.862z"/>
	<path fill="#804000" stroke="#000000" stroke-width="0.036" stroke-miterlimit="10" d="M97.9,196.262
		c0.743,5.06,2.35,9.523,4.888,13.691c2.539,4.105,6.166,8.152,10.276,10.99c4.146,2.816,8.773,5.693,14.076,5.793
		c5.233,0,13.092-2.223,16.978-5.596c3.8-3.451,4.854-9.146,5.769-14.721c0.847-5.635-0.311-13.153-0.535-18.649
		c-0.259-5.555-0.76-9.622-0.897-14.105c-0.173-4.523-1.728-8.769,0-12.657c1.641-3.948,5.785-7.42,10.104-10.574
		c4.335-3.194,11.054-5.833,15.699-8.293c4.611-2.539,8.774-4.146,11.745-6.428c2.867-2.302,3.713-4.166,5.596-7.043
		c1.849-2.917,3.713-6.25,5.596-10.158c0.311,2.579,1.07,5,2.349,7.262c1.261,2.262,2.539,4.483,5.232,6.21
		c2.661,1.606,6.962,3.65,10.641,3.531c3.695-0.159,7.893-1.667,11.192-4.365c3.264-2.777,7.047-11.685,7.944-12.022
		c0.743-0.357-2.383,7.4-3.247,9.96c-0.95,2.479-2.297,2.737-1.986,4.979c0.311,2.222,1.658,4.959,3.973,8.293
		c2.349,2.658,4.37,5.237,6.131,7.657c1.728,2.421,3.04,3.889,4.336,6.845c1.295,2.896,2.643,6.706,3.436,10.574
		c0.708,3.869,1.797,9.522,1.071,12.439c-0.795,2.797-3.126,3.353-5.406,4.562c-2.297,1.211-4.956,2.083-8.117,2.698
		c0.346,1.925,1.123,3.811,2.521,5.812c1.33,1.964,3.195,3.969,5.596,6.012c-0.776,1.111-2.004,1.705-3.609,1.865
		c-1.676,0.117-3.662-0.199-6.149-1.033c-0.622,1.629-0.172,3.393,1.278,5.377c1.469,1.945,3.886,4.088,7.393,6.428
		c-1.088,1.389-2.229,2.123-3.609,2.5c-1.366,0.297-2.868,0.119-4.509-0.615c1.398,3.809,2.954,6.686,4.871,8.711
		c1.83,2.023,3.558,2.617,6.321,3.312c2.78,0.635,6.546,1.031,10.104,0.416c3.489-0.734,7.841-2.182,10.657-4.562
		c2.746-2.4,4.645-5.654,5.768-9.762c0.397,4.068,1.797,6.41,4.336,7.264c2.538,0.791,7.581-0.318,10.656-2.48
		c2.987-2.262,5.527-7.084,7.22-10.793c1.658-3.75,3.021-6.984,2.694-11.387c-0.397-4.465-2.056-9.444-5.043-14.939
		c-3.109-5.615-9.724-12.599-13.179-18.034c-3.487-5.436-6.424-9.007-7.408-14.304c-0.967-5.396,1.416-12.043,1.624-17.419
		c0.223-5.396,0.845-9.206-0.537-14.562c-1.536-5.436-4.749-13.312-8.307-17.418c-3.593-4.107-7.945-5.773-12.987-6.845
		c-5.147-1.071-11.953-0.476-17.342,0.417c-5.424,0.833-10.846,4.345-14.612,4.563c-3.8,0.159-6.701-1.349-7.771-3.531
		c-1.054-2.242-0.57-5.436,1.45-9.741c-4.317,1.012-7.599,2.183-10.104,3.512c-2.504,1.27-2.85,2.341-4.698,4.365
		c-1.882,2.043-4.023,4.642-6.493,7.876c-1.676-1.964-2.868-3.869-3.438-6.011c-0.587-2.123-0.69-4.305-0.173-6.626
		c-3.126,1.885-5.526,3.79-7.409,5.793c-1.865,1.964-3.126,3.967-3.782,6.011c-2.953-0.932-4.939-2.4-5.959-4.562
		c-1.054-2.203-1.07-4.861-0.189-8.293c-4.318,1.825-7.6,4.106-9.914,6.845c-2.35,2.757-3.386,6.269-3.973,9.542
		c-0.639,3.174-0.518,6.19,0.363,9.741c0.863,3.591,2.487,7.36,4.87,11.605c-4.715-1.626-8.964-2.381-13.005-2.262
		c-4.094,0.1-7.808,0.1-11.002,2.896c-3.196,2.817-6.373,9.523-7.945,13.689c-1.606,3.987-1.399,5.932-1.451,10.574
		c-0.086,4.643,0.898,11.983,1.089,17.2c0.19,5.159,0.742,9.801,0,13.472c-0.881,3.61-2.66,6.626-4.87,7.896
		c-2.263,1.111-6.167,0.556-8.309-0.833c-2.193-1.389-3.609-3.849-4.508-7.46c-0.673,2.778-0.553,5.238,0.363,7.46
		c0.897,2.222,2.557,4.127,5.043,5.792c-1.642,0.397-3.109,0.357-4.681-0.197c-1.589-0.596-3.006-1.706-4.524-3.115
		c-1.521-1.447-3.022-3.194-4.509-5.396c0.467,5.138,1.451,9.284,2.885,12.657c1.45,3.293,3.333,5.712,5.786,7.261
		c-2.211,0.615-4.37,0.477-6.685-0.418C102.616,200.449,100.336,198.762,97.9,196.262z"/>
	<path stroke="#000000" stroke-width="0.036" stroke-miterlimit="10" d="M170.648,127.996c-2.073-2.023-3.766-4.305-5.406-6.845
		c-1.623-2.639-3.299-4.86-4.162-8.491c-0.915-3.63-1.209-7.916-1.071-13.074c0.674,3.988,2.021,8.293,3.973,13.074
		c2.004,4.781,6.563,12.678,7.755,15.336C172.841,130.536,172.479,130.536,170.648,127.996z"/>
	<path stroke="#000000" stroke-width="0.036" stroke-miterlimit="10" d="M180.942,126.746c-3.817-1.429-6.234-4.047-7.393-8.074
		c-1.174-4.087-0.949-9.285,0.535-15.971c0.433,5.436,1.192,10.039,2.35,14.105C177.557,120.854,179.06,124.068,180.942,126.746z"/>
	<path stroke="#000000" stroke-width="0.036" stroke-miterlimit="10" d="M189.975,114.723c-1.813-0.04-2.695-1.21-2.712-3.729
		c0.018-2.56,0.898-6.19,2.712-11.189c-0.604,3.214-0.933,5.972-0.915,8.491C189.042,110.815,189.371,112.858,189.975,114.723z"/>
	<path stroke="#000000" stroke-width="0.036" stroke-miterlimit="10" d="M242.86,125.297c3.593,0.893,6.148,3.73,7.945,8.512
		c1.744,4.841,0.276,14.76,2.521,20.116c2.245,5.198,5.786,8.928,10.829,11.189c-5.01-4.305-8.151-8.789-9.569-13.688
		c-1.415-4.96,2.988-11.189,1.09-15.555C253.706,131.467,249.458,128.016,242.86,125.297z"/>
	<path stroke="#000000" stroke-width="0.036" stroke-miterlimit="10" d="M251.703,110.161c4.146,2.658,6.908,6.11,8.48,10.574
		c1.52,4.483,0.053,11.109,0.725,15.971c0.623,4.841,1.624,8.907,3.074,12.657c-1.312-6.229-1.951-11.686-1.985-16.605
		c-0.035-4.94,3.472-9.066,1.796-12.836C262.065,116.092,258.059,112.917,251.703,110.161z"/>
	<path stroke="#000000" stroke-width="0.036" stroke-miterlimit="10" d="M278.595,175.114c5.37,4.483,8.738,9.226,10.293,14.305
		c1.434,5.078,0.346,12.876-1.261,15.97c-1.605,3.016-6.27,2.936-8.116,2.281c-1.883-0.695-2.885-2.836-3.075-6.428
		c2.107,4.066,4.007,5.535,5.959,4.562c1.899-1.07,6.01-5.416,5.406-10.575C287.126,190.053,284.122,183.447,278.595,175.114z"/>
	<path stroke="#000000" stroke-width="0.036" stroke-miterlimit="10" d="M249.181,196.064c1.227,2.461,2.85,3.174,4.871,2.063
		c2.003-1.13,4.387-4.006,7.22-8.708c-1.366,5.674-2.885,9.443-4.698,11.605c-1.813,2.104-4.923,1.846-6.131,1.053
		C249.181,201.184,248.784,199.277,249.181,196.064z"/>
	<path stroke="#000000" stroke-width="0.036" stroke-miterlimit="10" d="M249.89,209.117c0.604,4.029,2.21,5.219,4.886,3.73
		c2.643-1.527,6.287-5.812,11.003-12.855c-2.504,6.945-4.904,11.686-7.393,14.523c-2.503,2.758-5.992,2.936-7.409,2.062
		C249.543,215.666,249.181,213.205,249.89,209.117z"/>
	<path stroke="#000000" stroke-width="0.036" stroke-miterlimit="10" d="M148.817,127.003c-2.694,0.754-5.078,2.282-7.22,4.365
		c-2.193,2.122-4.836,4.96-5.596,8.293c-0.742,3.353-0.432,7.003,1.07,11.407c-0.76-5.02-0.155-9.443,1.813-13.49
		C140.872,133.531,144.119,130.079,148.817,127.003z"/>
	<path stroke="#000000" stroke-width="0.036" stroke-miterlimit="10" d="M161.08,130.119c-5.458,2.877-9.499,6.487-12.453,10.991
		c-2.937,4.464-4.594,9.661-5.043,15.752c1.175-5.812,3.195-10.852,6.132-15.336C152.633,137.023,156.399,133.292,161.08,130.119z"
		/>
	<path stroke="#000000" stroke-width="0.036" stroke-miterlimit="10" d="M136.001,189.418c-0.259,3.035-0.864,5.455-1.813,7.262
		c-1.002,1.785-2.107,3.47-3.973,3.531c-1.917-0.02-4.231-1.17-7.219-3.531c2.918,4.343,5.51,6.546,7.771,6.843
		c2.245,0.238,4.854-3.096,5.769-5.396C137.383,195.747,137.228,192.871,136.001,189.418z"/>
	<path stroke="#000000" stroke-width="0.036" stroke-miterlimit="10" d="M134.015,210.785c-0.76,3.512-2.366,5.377-4.888,5.596
		c-2.557,0.178-5.959-1.252-10.276-4.367c3.057,3.691,5.717,6.111,8.117,7.264c2.4,1.129,4.888,0.99,6.132-0.418
		C134.257,217.412,134.584,214.773,134.015,210.785z"/>
	<path fill="#A1A1A1" stroke="#000000" stroke-width="0.036" stroke-miterlimit="10" d="M244.518,228.303
		c1.382,0.338,3.367,0.477,5.959,0.416c2.607-0.078,5.751-0.355,9.568-0.832c1.675,1.885,4.559,3.75,8.843,5.594
		c4.282,1.826,12.263,3.73,16.614,5.396c4.301,1.607,8.377,2.162,9.034,4.346c0.569,2.143-3.214,4.523-5.424,8.51
		c-2.263,3.969-5.596,9.426-7.945,15.139c-2.383,5.674-5.181,14.621-6.131,18.648c-0.95,3.947-0.639,7.062,0.535,4.979
		c1.105-2.221,3.99-11.486,6.321-17.615c2.314-6.191,4.663-14.881,7.583-18.869c2.902-3.986,7.081-5.018,9.741-4.779
		c2.538,0.197,4.023-1.807,5.786,6.229c1.761,8.113,3.298,21.844,4.68,41.881H199.941c3.281-3.035,6.891-5.496,11.019-7.459
		c4.11-2.006,8.532-3.434,13.523-4.365c4.905-0.893,9.862-1.07,16.08-1.23c6.253-0.238,13.178-0.336,21.106-0.217
		c-4.992-4.584-8.758-9.643-11.365-15.336c-2.625-5.795-3.385-11.865-4.335-18.67C244.984,243.242,244.5,236.141,244.518,228.303z"
		/>
	<path fill="#A1A1A1" stroke="#000000" stroke-width="0.036" stroke-miterlimit="10" d="M142.271,225.387
		c-2.936,1.646-5.527,2.896-7.771,3.75c-2.298,0.812-0.847-0.436-5.77,1.229c-5.009,1.607-18.395,5.338-23.645,8.512
		c-5.233,3.074-5.941,5.773-7.583,10.158c-1.692,4.305-1.451,7.996-2.348,15.971c-0.933,8.074-1.935,18.51-3.075,31.922h98.015
		c-4.939-3.611-9.828-6.211-14.802-7.877c-5.009-1.646-9.914-2.004-14.975-2.062c-5.129-0.119-9.775,0.773-15.336,1.449
		c-5.579,0.674-11.469,1.428-17.877,2.479c3.402-6.09,6.27-12.836,8.671-20.533c2.365-7.758,4.473-17.936,5.596-25.494
		C142.46,237.311,142.737,230.961,142.271,225.387z"/>
</g>
</svg>
