<?xml version="1.0" encoding="utf-8"?>
<!-- Generator: Adobe Illustrator 17.1.0, SVG Export Plug-In . SVG Version: 6.00 Build 0)  -->
<!DOCTYPE svg PUBLIC "-//W3C//DTD SVG 1.1//EN" "http://www.w3.org/Graphics/SVG/1.1/DTD/svg11.dtd">
<svg version="1.1" id="Layer_1" xmlns="http://www.w3.org/2000/svg" xmlns:xlink="http://www.w3.org/1999/xlink" x="0px" y="0px"
	 width="110px" height="110px" viewBox="0 0 110 110" enable-background="new 0 0 110 110" xml:space="preserve">
<g>
	<path fill="#5B534B" d="M55,110C24.7,110,0,85.3,0,55C0,24.7,24.7,0,55,0s55,24.7,55,55C110,85.3,85.3,110,55,110z"/>
	<g>
		<path fill="#FFFFFF" d="M55,26.7c3.3,0,6.3,1.6,8.2,4.3l1.7,2.4l2.7-1.2c1.3-0.6,2.7-0.9,4.1-0.9c5.5,0,10.1,4.5,10.1,10.1
			c0,4.1-2.4,7.7-6.2,9.3l-2.1,0.9l-0.1,2.2l-1.2,29.5H37.9l-1.2-29.5l-0.1-2.3l-2.1-0.9c-3.8-1.6-6.3-5.2-6.3-9.3
			c0-5.5,4.5-10.1,10.1-10.1c1.4,0,2.8,0.3,4.1,0.9l2.7,1.2l1.7-2.4C48.7,28.3,51.7,26.7,55,26.7 M55,23.2c-4.6,0-8.6,2.3-11.1,5.8
			c-1.7-0.8-3.6-1.2-5.6-1.2c-7.5,0-13.6,6.1-13.6,13.6c0,5.7,3.5,10.5,8.5,12.6l1.3,32.9h41.1l1.3-32.9c4.9-2.1,8.3-6.9,8.3-12.5
			c0-7.5-6.1-13.6-13.6-13.6c-2,0-3.9,0.4-5.6,1.2C63.6,25.5,59.6,23.2,55,23.2L55,23.2z"/>
		<rect x="34.3" y="76.4" fill="#FFFFFF" width="41.1" height="2.4"/>
	</g>
</g>
</svg>
