<?xml version="1.0" encoding="utf-8"?>
<!-- Generator: Adobe Illustrator 16.0.4, SVG Export Plug-In . SVG Version: 6.00 Build 0)  -->
<!DOCTYPE svg PUBLIC "-//W3C//DTD SVG 1.1//EN" "http://www.w3.org/Graphics/SVG/1.1/DTD/svg11.dtd">
<svg version="1.1" id="Layer_1" xmlns="http://www.w3.org/2000/svg" xmlns:xlink="http://www.w3.org/1999/xlink" x="0px" y="0px"
	 width="654px" height="654px" viewBox="0 0 654 654" enable-background="new 0 0 654 654" xml:space="preserve">
<circle fill="#4C5B6F" cx="327" cy="327" r="327"/>
<g>
	<g>
		<path fill="#FFFFFF" d="M298.663,358.25v21.019l-74.713-32.386V328.91l74.713-32.38v21.166l-52.058,20.058L298.663,358.25z"/>
		<path fill="#FFFFFF" d="M344.861,296.083l-20.801,85.635c-0.691,2.818-1.296,5.05-1.814,6.687
			c-0.522,1.634-1.31,2.912-2.376,3.818c-1.063,0.92-2.612,1.375-4.646,1.375c-5.043,0-7.572-2.185-7.572-6.533
			c0-1.14,0.494-3.986,1.483-8.541l20.723-85.635c1.089-4.553,2.13-7.673,3.118-9.354c0.99-1.684,2.918-2.526,5.794-2.526
			c2.476,0,4.368,0.596,5.68,1.784c1.31,1.189,1.968,2.825,1.968,4.902C346.421,289.229,345.896,292.024,344.861,296.083z"/>
		<path fill="#FFFFFF" d="M430.047,346.883l-74.71,32.533v-21.02l52.212-20.497l-52.212-20.203v-20.87l74.71,32.23V346.883z"/>
	</g>
	<path fill="#FFFFFF" d="M478.139,175.859H175.86c-11.38,0-20.609,9.23-20.609,20.611v261.06c0,11.377,9.229,20.609,20.609,20.609
		h302.278c11.383,0,20.609-9.232,20.609-20.609V196.47C498.748,185.087,489.521,175.859,478.139,175.859z M426.613,189.601
		c7.57,0,13.74,6.161,13.74,13.74c0,7.577-6.168,13.739-13.74,13.739c-7.578,0-13.738-6.164-13.738-13.739
		C412.873,195.762,419.035,189.601,426.613,189.601z M388.83,189.601c7.572,0,13.736,6.161,13.736,13.74
		c0,7.577-6.164,13.739-13.736,13.739c-7.576,0-13.74-6.164-13.74-13.739C375.09,195.762,381.254,189.601,388.83,189.601z
		 M478.139,457.529H175.86V230.82h302.278V457.529L478.139,457.529z M464.396,217.081c-7.572,0-13.738-6.163-13.738-13.739
		c0-7.58,6.166-13.739,13.738-13.739c7.574,0,13.742,6.161,13.742,13.739C478.139,210.917,471.971,217.081,464.396,217.081z"/>
</g>
</svg>
