<?xml version="1.0" encoding="utf-8"?>
<!-- Generator: Adobe Illustrator 16.0.4, SVG Export Plug-In . SVG Version: 6.00 Build 0)  -->
<!DOCTYPE svg PUBLIC "-//W3C//DTD SVG 1.1//EN" "http://www.w3.org/Graphics/SVG/1.1/DTD/svg11.dtd">
<svg version="1.1" id="Layer_1" xmlns="http://www.w3.org/2000/svg" xmlns:xlink="http://www.w3.org/1999/xlink" x="0px" y="0px"
	 width="30px" height="45px" viewBox="0 0 512 512" enable-background="new 0 0 512 512" xml:space="preserve">
<title>Andrew The Guy</title>
<g fill="#cccccc">
	<g id="tag_group">
		<path d="M215.385,300.803v30.137l-107.114-46.434v-25.767l107.114-46.425v30.348l-74.634,28.756L215.385,300.803z"
			/>
		<path d="M281.62,211.675l-29.823,122.774c-0.992,4.04-1.856,7.238-2.604,9.585
			c-0.746,2.344-1.875,4.177-3.402,5.499c-1.526,1.318-3.745,1.969-6.661,1.969c-7.231,0-10.857-3.129-10.857-9.363
			c0-1.636,0.71-5.717,2.128-12.248l29.708-122.771c1.562-6.527,3.055-11.001,4.472-13.411c1.42-2.414,4.184-3.622,8.308-3.622
			c3.547,0,6.213,0.837,8.128,2.511c1.881,1.672,2.866,4.063,2.866,7.026c-0.027,2.229-0.74,6.293-2.295,12.054L281.62,211.675
			L281.62,211.675z"/>
		<path d="M403.75,284.506l-107.11,46.644v-30.137l74.856-29.385l-74.856-28.967v-29.92l107.11,46.208V284.506z"/>
	</g>
	<path id="frame" d="M472.698,39.31H39.323C23.007,39.288,9.776,52.555,9.776,68.861V443.14
		c0,16.258,13.268,29.522,29.524,29.55h433.375c16.32,0,29.549-13.238,29.549-29.55V68.861
		c0.021-16.306-13.247-29.573-29.504-29.551H472.698z M398.828,59.011c10.854,0,19.723,8.845,19.723,19.7
		c0,10.863-8.843,19.698-19.699,19.698c-10.864,0-19.7-8.835-19.7-19.698c-0.022-10.854,8.822-19.7,19.699-19.7H398.828z
		 M344.657,59.011c10.856,0,19.723,8.845,19.723,19.7c0,10.863-8.839,19.698-19.696,19.723c-10.863,0-19.697-8.834-19.697-19.698
		c-0.029-10.879,8.84-19.725,19.718-19.725H344.657z M472.698,443.139H39.323V118.107h433.375V443.139L472.698,443.139z
		 M452.998,98.408c-10.856,0-19.697-8.835-19.697-19.698c0-10.867,8.841-19.7,19.697-19.7s19.7,8.845,19.723,19.723
		C472.698,89.61,463.876,98.456,452.998,98.408z"/>
</g>
</svg>
